# Generated primitive mesh
v -0.300000 0.000000 -0.300000
v 0.300000 0.000000 -0.300000
v 0.300000 0.000000 0.300000
v -0.300000 0.000000 -0.300000
v 0.300000 0.000000 0.300000
v -0.300000 0.000000 0.300000
v -0.300000 0.000000 -0.300000
v 0.300000 0.000000 -0.300000
v 0.000000 0.500000 0.000000
v 0.300000 0.000000 -0.300000
v 0.300000 0.000000 0.300000
v 0.000000 0.500000 0.000000
v 0.300000 0.000000 0.300000
v -0.300000 0.000000 0.300000
v 0.000000 0.500000 0.000000
v -0.300000 0.000000 0.300000
v -0.300000 0.000000 -0.300000
v 0.000000 0.500000 0.000000
vn 0.000000 -1.000000 0.000000
vn 0.000000 -1.000000 0.000000
vn 0.000000 -1.000000 0.000000
vn 0.000000 -1.000000 0.000000
vn 0.000000 -1.000000 0.000000
vn 0.000000 -1.000000 0.000000
vn 0.000000 -0.514496 0.857493
vn 0.000000 -0.514496 0.857493
vn 0.000000 -0.514496 0.857493
vn -0.857493 -0.514496 0.000000
vn -0.857493 -0.514496 0.000000
vn -0.857493 -0.514496 0.000000
vn -0.000000 -0.514496 -0.857493
vn -0.000000 -0.514496 -0.857493
vn -0.000000 -0.514496 -0.857493
vn 0.857493 -0.514496 0.000000
vn 0.857493 -0.514496 0.000000
vn 0.857493 -0.514496 0.000000
f 1//1 2//2 3//3
f 4//4 5//5 6//6
f 7//7 8//8 9//9
f 10//10 11//11 12//12
f 13//13 14//14 15//15
f 16//16 17//17 18//18
